<svg xmlns="http://www.w3.org/2000/svg" xmlns:xlink="http://www.w3.org/1999/xlink" viewBox="0 0 300 150">
    <!-- Car - positioned stationary in center -->
    <g id="car" transform="scale(-1,1)">
        <!-- Car body - simplified shape -->
        <path d="M 30,70 C 32.5,50 50,45 70,45 C 110,45 130,45 150,45 C 162.5,45 165,60 160,70 C 155,80 35,80 30,70 Z"
            fill="#5DC1EB" stroke="none" />

        <!-- Windows area - simplified -->
        <path d="M 70,45 C 70,35 75,30 85,30 C 110,30 120,30 125,45" fill="#2D3D4D" stroke="none" />

        <!-- Door line - simplified -->
        <path d="M 85,45 C 85,50 82.5,65 82.5,70" fill="none" stroke="#41A3C9" stroke-width="2" />

        <!-- Wheels - simplified -->
        <circle cx="50" cy="70" r="12.5" fill="#6B7784" stroke="black" stroke-width="2" />
        <circle cx="50" cy="70" r="6" fill="#505A68" />

        <circle cx="140" cy="70" r="12.5" fill="#6B7784" stroke="black" stroke-width="2" />
        <circle cx="140" cy="70" r="6" fill="#505A68" />

        <!-- Headlight -->
        <circle cx="32.5" cy="57.5" r="4" fill="#E74C3C" />

        <!-- Taillight -->
        <circle cx="157.5" cy="57.5" r="4" fill="#E67E22" />
    </g>

    <!-- Simple Movie Camera - positioned for movement to front of car -->
    <g id="camera" transform="rotate(90, 20, 20)">
        <!-- Main Camera Body -->
        <rect x="21" y="37" width="16" height="24" rx="1.2" fill="#222" stroke="#000" stroke-width="0.8" />

        <!-- Lens -->
        <rect x="25" y="30" width="8" height="8" fill="#333" stroke="#000" stroke-width="0.8" />

        <!-- Two Simple Film Reels -->
        <circle cx="18" cy="58" r="6" fill="#333" stroke="#000" stroke-width="0.8" />
        <circle cx="15" cy="45" r="8" fill="#333" stroke="#000" stroke-width="0.8" />

        <!-- Animation to scale from scaleX(1) to scaleX(-1) -->
        <animateTransform 
            attributeName="transform" 
            type="scale" 
            dur="5s" 
            repeatCount="indefinite"
            values="1 1; 1 -1"
            additive="sum" />
    </g>

    <!-- Camera movement path to front of car -->
    <path id="cameraPath" d="M 20,10 L 190,10" fill="none" stroke="none" />

    <!-- Car movement path -->
    <path id="carPath" d="M 200,0 L 300,10" fill="none" stroke="none" />

    <!-- Camera movement animation -->
    <animateMotion xlink:href="#camera" dur="5s" repeatCount="indefinite">
        <mpath xlink:href="#cameraPath" />
    </animateMotion>

    <!-- Car movement animation -->
    <animateMotion xlink:href="#car" dur="5s" repeatCount="indefinite">
        <mpath xlink:href="#carPath" />
    </animateMotion>
</svg>